<?xml version="1.0" standalone="no"?>
<!DOCTYPE svg PUBLIC "-//W3C//DTD SVG 20010904//EN"
 "http://www.w3.org/TR/2001/REC-SVG-20010904/DTD/svg10.dtd">
<svg version="1.0" xmlns="http://www.w3.org/2000/svg"
 width="1332.000000pt" height="1332.000000pt" viewBox="0 0 1332.000000 1332.000000"
 preserveAspectRatio="xMidYMid meet">
<metadata>
Created by potrace 1.14, written by Peter Selinger 2001-2017
</metadata>
<g transform="translate(0.000000,1332.000000) scale(0.100000,-0.100000)"
fill="#000000" stroke="none">
<path d="M824 10265 c-94 -26 -323 -146 -374 -197 -115 -113 -151 -333 -170
-1028 -12 -450 -12 -4503 0 -4948 15 -542 29 -631 119 -759 197 -281 568 -354
873 -172 46 27 119 88 199 166 l127 124 5 1902 c4 1797 12 2304 35 2391 8 29
9 28 108 -85 456 -519 3114 -3760 3506 -4274 42 -55 96 -117 120 -137 114 -93
259 -169 377 -198 198 -47 502 81 648 275 85 111 114 207 133 430 6 70 14 820
20 1784 5 915 10 1665 12 1666 2 2 58 -105 125 -238 1463 -2899 1822 -3581
1978 -3754 86 -97 224 -145 415 -146 136 -1 210 16 320 70 74 37 76 40 155
158 177 265 468 799 1155 2120 582 1119 925 1764 955 1794 12 12 16 11 25 -13
22 -58 30 -324 30 -976 l0 -675 113 -123 c125 -137 189 -189 292 -238 72 -35
195 -64 266 -64 75 0 194 31 279 73 140 68 280 225 323 362 26 83 37 182 47
447 12 324 13 2903 0 3278 -17 523 -45 627 -211 792 -92 92 -197 147 -328 174
-233 46 -476 -40 -589 -209 -188 -281 -745 -1270 -1447 -2572 -782 -1450
-1356 -2475 -1385 -2475 -38 0 -1078 1938 -2155 4015 -257 495 -337 644 -466
861 -130 218 -181 282 -254 321 -100 53 -202 76 -335 76 -198 -1 -366 -63
-490 -180 -108 -101 -138 -177 -159 -398 -24 -254 -42 -1077 -62 -2880 -6
-555 -14 -1074 -17 -1153 l-7 -143 -990 1218 c-1919 2360 -2149 2638 -2503
3025 -409 448 -604 571 -818 513z"/>
<path d="M12143 4340 c-103 -27 -149 -54 -228 -134 -120 -121 -185 -280 -185
-453 0 -114 23 -210 77 -322 77 -162 223 -285 398 -337 42 -13 94 -18 175 -19
131 0 213 20 335 83 96 50 230 183 273 272 87 181 82 370 -17 575 -125 261
-292 356 -623 354 -96 0 -153 -5 -205 -19z"/>
</g>
</svg>
