<?xml version="1.0" standalone="no"?>
<!DOCTYPE svg PUBLIC "-//W3C//DTD SVG 20010904//EN"
 "http://www.w3.org/TR/2001/REC-SVG-20010904/DTD/svg10.dtd">
<svg version="1.0" xmlns="http://www.w3.org/2000/svg"
 width="250.000000pt" height="140.000000pt" viewBox="0 0 250.000000 140.000000"
 preserveAspectRatio="xMidYMid meet">

<g transform="translate(0.000000,140.000000) scale(0.100000,-0.100000)"
fill="#000000" stroke="none">
<path d="M120 1362 c-72 -35 -70 -18 -70 -667 0 -564 1 -581 20 -613 43 -70
136 -78 197 -17 l33 33 0 407 c0 250 4 405 9 403 10 -3 651 -784 678 -825 21
-32 75 -63 109 -63 44 0 97 32 116 71 16 30 18 71 18 374 l1 340 187 -370
c136 -268 195 -375 215 -390 38 -27 106 -27 143 0 18 14 88 139 215 384 104
201 193 369 199 375 7 7 10 -40 10 -152 l0 -162 33 -36 c58 -64 152 -55 197
19 19 30 20 53 20 417 0 347 -2 388 -18 419 -35 70 -129 89 -187 38 -14 -12
-140 -233 -279 -492 -139 -259 -257 -469 -262 -469 -8 2 -240 436 -432 808
-42 82 -86 155 -98 163 -57 37 -146 21 -181 -33 -16 -26 -18 -63 -23 -435 l-5
-406 -345 424 c-399 491 -410 501 -500 455z"/>
<path d="M2252 254 c-82 -57 -61 -191 34 -222 78 -25 164 33 164 110 0 44 -29
97 -61 113 -37 20 -109 19 -137 -1z"/>
</g>
</svg>
